<mxfile host="65bd71144e">
    <diagram id="05XMzOCilaxubkXeZRnk" name="Page-1">
        <mxGraphModel dx="1188" dy="792" grid="1" gridSize="10" guides="1" tooltips="1" connect="1" arrows="1" fold="1" page="1" pageScale="1" pageWidth="850" pageHeight="1100" math="0" shadow="0">
            <root>
                <mxCell id="0"/>
                <mxCell id="1" parent="0"/>
                <mxCell id="2" value="Сайт" style="rounded=0;whiteSpace=wrap;html=1;" parent="1" vertex="1">
                    <mxGeometry x="350" y="360" width="120" height="60" as="geometry"/>
                </mxCell>
                <mxCell id="3" value="Оновлення бази даних" style="ellipse;whiteSpace=wrap;html=1;" parent="1" vertex="1">
                    <mxGeometry x="350" y="200" width="120" height="80" as="geometry"/>
                </mxCell>
                <mxCell id="4" value="БД" style="rounded=0;whiteSpace=wrap;html=1;" parent="1" vertex="1">
                    <mxGeometry x="580" y="360" width="120" height="60" as="geometry"/>
                </mxCell>
                <mxCell id="7" value="форми та коментарі" style="ellipse;whiteSpace=wrap;html=1;" parent="1" vertex="1">
                    <mxGeometry x="440" y="490" width="120" height="80" as="geometry"/>
                </mxCell>
                <mxCell id="8" value="авторизація" style="ellipse;whiteSpace=wrap;html=1;" parent="1" vertex="1">
                    <mxGeometry x="260" y="490" width="120" height="80" as="geometry"/>
                </mxCell>
                <mxCell id="9" value="користувач" style="rounded=0;whiteSpace=wrap;html=1;" parent="1" vertex="1">
                    <mxGeometry x="350" y="650" width="120" height="60" as="geometry"/>
                </mxCell>
                <mxCell id="10" value="" style="endArrow=classic;html=1;exitX=0.867;exitY=0.033;exitDx=0;exitDy=0;exitPerimeter=0;entryX=0.5;entryY=1;entryDx=0;entryDy=0;" parent="1" source="9" target="7" edge="1">
                    <mxGeometry width="50" height="50" relative="1" as="geometry">
                        <mxPoint x="390" y="430" as="sourcePoint"/>
                        <mxPoint x="440" y="380" as="targetPoint"/>
                    </mxGeometry>
                </mxCell>
                <mxCell id="12" value="" style="endArrow=classic;html=1;exitX=1;exitY=0;exitDx=0;exitDy=0;entryX=0.142;entryY=0.983;entryDx=0;entryDy=0;entryPerimeter=0;" parent="1" source="8" target="2" edge="1">
                    <mxGeometry width="50" height="50" relative="1" as="geometry">
                        <mxPoint x="390" y="430" as="sourcePoint"/>
                        <mxPoint x="440" y="380" as="targetPoint"/>
                        <Array as="points">
                            <mxPoint x="350" y="450"/>
                        </Array>
                    </mxGeometry>
                </mxCell>
                <mxCell id="13" value="" style="endArrow=classic;html=1;entryX=1;entryY=0;entryDx=0;entryDy=0;" parent="1" target="8" edge="1">
                    <mxGeometry width="50" height="50" relative="1" as="geometry">
                        <mxPoint x="370" y="420" as="sourcePoint"/>
                        <mxPoint x="440" y="380" as="targetPoint"/>
                        <Array as="points">
                            <mxPoint x="380" y="460"/>
                        </Array>
                    </mxGeometry>
                </mxCell>
                <mxCell id="14" value="" style="endArrow=classic;html=1;exitX=1;exitY=0;exitDx=0;exitDy=0;entryX=0.142;entryY=0.983;entryDx=0;entryDy=0;entryPerimeter=0;" parent="1" edge="1">
                    <mxGeometry width="50" height="50" relative="1" as="geometry">
                        <mxPoint x="451.42640687119274" y="502.71572875253787" as="sourcePoint"/>
                        <mxPoint x="456.03999999999996" y="419.98" as="targetPoint"/>
                        <Array as="points">
                            <mxPoint x="440" y="460"/>
                        </Array>
                    </mxGeometry>
                </mxCell>
                <mxCell id="15" value="" style="endArrow=classic;html=1;entryX=1;entryY=0;entryDx=0;entryDy=0;" parent="1" edge="1">
                    <mxGeometry width="50" height="50" relative="1" as="geometry">
                        <mxPoint x="459" y="421" as="sourcePoint"/>
                        <mxPoint x="451.42640687119274" y="502.71572875253787" as="targetPoint"/>
                        <Array as="points">
                            <mxPoint x="470" y="461"/>
                        </Array>
                    </mxGeometry>
                </mxCell>
                <mxCell id="16" value="" style="endArrow=classic;html=1;entryX=0;entryY=0.5;entryDx=0;entryDy=0;exitX=1;exitY=0.5;exitDx=0;exitDy=0;" parent="1" source="2" target="4" edge="1">
                    <mxGeometry width="50" height="50" relative="1" as="geometry">
                        <mxPoint x="480" y="390" as="sourcePoint"/>
                        <mxPoint x="440" y="380" as="targetPoint"/>
                        <Array as="points">
                            <mxPoint x="520" y="360"/>
                        </Array>
                    </mxGeometry>
                </mxCell>
                <mxCell id="17" value="" style="endArrow=classic;html=1;entryX=1;entryY=0.5;entryDx=0;entryDy=0;exitX=0;exitY=0.5;exitDx=0;exitDy=0;" parent="1" source="4" target="2" edge="1">
                    <mxGeometry width="50" height="50" relative="1" as="geometry">
                        <mxPoint x="450" y="460" as="sourcePoint"/>
                        <mxPoint x="500" y="410" as="targetPoint"/>
                        <Array as="points">
                            <mxPoint x="520" y="420"/>
                        </Array>
                    </mxGeometry>
                </mxCell>
                <mxCell id="18" value="" style="endArrow=classic;html=1;exitX=1;exitY=0;exitDx=0;exitDy=0;entryX=0.142;entryY=0.983;entryDx=0;entryDy=0;entryPerimeter=0;" parent="1" edge="1">
                    <mxGeometry width="50" height="50" relative="1" as="geometry">
                        <mxPoint x="407.42640687119274" y="363.71572875253787" as="sourcePoint"/>
                        <mxPoint x="412.03999999999996" y="280.98" as="targetPoint"/>
                        <Array as="points">
                            <mxPoint x="375" y="312"/>
                        </Array>
                    </mxGeometry>
                </mxCell>
                <mxCell id="19" value="" style="endArrow=classic;html=1;entryX=1;entryY=0;entryDx=0;entryDy=0;" parent="1" edge="1">
                    <mxGeometry width="50" height="50" relative="1" as="geometry">
                        <mxPoint x="415" y="282" as="sourcePoint"/>
                        <mxPoint x="407.42640687119274" y="363.71572875253787" as="targetPoint"/>
                        <Array as="points">
                            <mxPoint x="455" y="322"/>
                        </Array>
                    </mxGeometry>
                </mxCell>
                <mxCell id="20" value="" style="endArrow=classic;html=1;exitX=1;exitY=0;exitDx=0;exitDy=0;entryX=1;entryY=1;entryDx=0;entryDy=0;" parent="1" target="8" edge="1">
                    <mxGeometry width="50" height="50" relative="1" as="geometry">
                        <mxPoint x="358.42640687119274" y="651.7157287525379" as="sourcePoint"/>
                        <mxPoint x="363.03999999999996" y="568.98" as="targetPoint"/>
                        <Array as="points">
                            <mxPoint x="326" y="600"/>
                        </Array>
                    </mxGeometry>
                </mxCell>
                <mxCell id="21" value="" style="endArrow=classic;html=1;entryX=1;entryY=0;entryDx=0;entryDy=0;" parent="1" edge="1">
                    <mxGeometry width="50" height="50" relative="1" as="geometry">
                        <mxPoint x="360" y="560" as="sourcePoint"/>
                        <mxPoint x="358.42640687119274" y="651.7157287525379" as="targetPoint"/>
                        <Array as="points">
                            <mxPoint x="406" y="610"/>
                        </Array>
                    </mxGeometry>
                </mxCell>
                <mxCell id="22" value="особисті &lt;br&gt;данні" style="text;html=1;align=center;verticalAlign=middle;resizable=0;points=[];autosize=1;strokeColor=none;fillColor=none;" parent="1" vertex="1">
                    <mxGeometry x="390" y="579" width="70" height="40" as="geometry"/>
                </mxCell>
                <mxCell id="23" value="форма&lt;br&gt;реестрації" style="text;html=1;align=center;verticalAlign=middle;resizable=0;points=[];autosize=1;strokeColor=none;fillColor=none;" parent="1" vertex="1">
                    <mxGeometry x="260" y="590" width="80" height="40" as="geometry"/>
                </mxCell>
                <mxCell id="24" value="інформація" style="text;html=1;align=center;verticalAlign=middle;resizable=0;points=[];autosize=1;strokeColor=none;fillColor=none;" parent="1" vertex="1">
                    <mxGeometry x="470" y="600" width="90" height="30" as="geometry"/>
                </mxCell>
                <mxCell id="25" value="дані &lt;br&gt;користувача" style="text;html=1;align=center;verticalAlign=middle;resizable=0;points=[];autosize=1;strokeColor=none;fillColor=none;" parent="1" vertex="1">
                    <mxGeometry x="260" y="440" width="90" height="40" as="geometry"/>
                </mxCell>
                <mxCell id="26" value="результат&lt;br&gt;реестрації" style="text;html=1;align=center;verticalAlign=middle;resizable=0;points=[];autosize=1;strokeColor=none;fillColor=none;" parent="1" vertex="1">
                    <mxGeometry x="368" y="440" width="80" height="40" as="geometry"/>
                </mxCell>
                <mxCell id="28" style="edgeStyle=none;html=1;" parent="1" source="27" target="3" edge="1">
                    <mxGeometry relative="1" as="geometry"/>
                </mxCell>
                <mxCell id="27" value="Адміністратор" style="rounded=0;whiteSpace=wrap;html=1;" parent="1" vertex="1">
                    <mxGeometry x="350" y="100" width="120" height="60" as="geometry"/>
                </mxCell>
                <mxCell id="121" style="edgeStyle=none;html=1;entryX=0.5;entryY=1;entryDx=0;entryDy=0;" edge="1" parent="1" source="29" target="32">
                    <mxGeometry relative="1" as="geometry"/>
                </mxCell>
                <mxCell id="29" value="користувач" style="shape=umlActor;verticalLabelPosition=bottom;verticalAlign=top;html=1;outlineConnect=0;" parent="1" vertex="1">
                    <mxGeometry x="936" y="190" width="30" height="60" as="geometry"/>
                </mxCell>
                <mxCell id="58" style="edgeStyle=none;html=1;" edge="1" parent="1" source="31" target="57">
                    <mxGeometry relative="1" as="geometry">
                        <Array as="points">
                            <mxPoint x="1186" y="350"/>
                            <mxPoint x="1186" y="420"/>
                            <mxPoint x="1116" y="450"/>
                        </Array>
                    </mxGeometry>
                </mxCell>
                <mxCell id="124" style="edgeStyle=none;html=1;entryX=0.917;entryY=0.213;entryDx=0;entryDy=0;entryPerimeter=0;" edge="1" parent="1" source="31" target="35">
                    <mxGeometry relative="1" as="geometry"/>
                </mxCell>
                <mxCell id="125" style="edgeStyle=none;html=1;entryX=0.5;entryY=0.5;entryDx=0;entryDy=0;entryPerimeter=0;" edge="1" parent="1" source="31" target="29">
                    <mxGeometry relative="1" as="geometry">
                        <Array as="points">
                            <mxPoint x="1046" y="350"/>
                            <mxPoint x="1046" y="220"/>
                        </Array>
                    </mxGeometry>
                </mxCell>
                <mxCell id="31" value="адміністратор /&lt;br&gt;вповноважений&lt;br&gt;співробітник" style="shape=umlActor;verticalLabelPosition=bottom;verticalAlign=top;html=1;outlineConnect=0;" parent="1" vertex="1">
                    <mxGeometry x="1101" y="320" width="30" height="60" as="geometry"/>
                </mxCell>
                <mxCell id="32" value="перегляд інформації на сайті" style="ellipse;whiteSpace=wrap;html=1;" parent="1" vertex="1">
                    <mxGeometry x="886" y="60" width="120" height="80" as="geometry"/>
                </mxCell>
                <mxCell id="35" value="авторизація" style="ellipse;whiteSpace=wrap;html=1;" parent="1" vertex="1">
                    <mxGeometry x="876" y="410" width="120" height="80" as="geometry"/>
                </mxCell>
                <mxCell id="38" value="заповнити форму реестрації на івент" style="ellipse;whiteSpace=wrap;html=1;" parent="1" vertex="1">
                    <mxGeometry x="1436" y="20" width="120" height="80" as="geometry"/>
                </mxCell>
                <mxCell id="41" value="залишити коментар" style="ellipse;whiteSpace=wrap;html=1;" parent="1" vertex="1">
                    <mxGeometry x="1436" y="130" width="120" height="80" as="geometry"/>
                </mxCell>
                <mxCell id="57" value="БД" style="ellipse;whiteSpace=wrap;html=1;" vertex="1" parent="1">
                    <mxGeometry x="1056" y="480" width="120" height="80" as="geometry"/>
                </mxCell>
                <mxCell id="59" value="додати запис БД" style="ellipse;whiteSpace=wrap;html=1;" vertex="1" parent="1">
                    <mxGeometry x="1246" y="410" width="120" height="50" as="geometry"/>
                </mxCell>
                <mxCell id="60" value="редагувати БД" style="ellipse;whiteSpace=wrap;html=1;" vertex="1" parent="1">
                    <mxGeometry x="1256" y="495" width="120" height="50" as="geometry"/>
                </mxCell>
                <mxCell id="61" value="видалити запис БД" style="ellipse;whiteSpace=wrap;html=1;" vertex="1" parent="1">
                    <mxGeometry x="1256" y="580" width="120" height="50" as="geometry"/>
                </mxCell>
                <mxCell id="63" value="Додати нову форму івенту" style="ellipse;whiteSpace=wrap;html=1;" vertex="1" parent="1">
                    <mxGeometry x="1466" y="290" width="120" height="50" as="geometry"/>
                </mxCell>
                <mxCell id="64" value="додати статтю" style="ellipse;whiteSpace=wrap;html=1;" vertex="1" parent="1">
                    <mxGeometry x="1536" y="380" width="120" height="50" as="geometry"/>
                </mxCell>
                <mxCell id="65" value="зарееструвати співробітника" style="ellipse;whiteSpace=wrap;html=1;" vertex="1" parent="1">
                    <mxGeometry x="1566" y="480" width="120" height="50" as="geometry"/>
                </mxCell>
                <mxCell id="66" value="коментарі" style="ellipse;whiteSpace=wrap;html=1;" vertex="1" parent="1">
                    <mxGeometry x="1486" y="610" width="120" height="50" as="geometry"/>
                </mxCell>
                <mxCell id="67" value="Extends" style="endArrow=block;endSize=16;endFill=0;html=1;dashed=1;entryX=1;entryY=0;entryDx=0;entryDy=0;exitX=0;exitY=0.5;exitDx=0;exitDy=0;" edge="1" parent="1" source="59" target="57">
                    <mxGeometry width="160" relative="1" as="geometry">
                        <mxPoint x="1066" y="410" as="sourcePoint"/>
                        <mxPoint x="1226" y="410" as="targetPoint"/>
                    </mxGeometry>
                </mxCell>
                <mxCell id="68" value="Extends" style="endArrow=block;endSize=16;endFill=0;html=1;dashed=1;entryX=1;entryY=1;entryDx=0;entryDy=0;exitX=0;exitY=0.5;exitDx=0;exitDy=0;" edge="1" parent="1" source="61" target="57">
                    <mxGeometry width="160" relative="1" as="geometry">
                        <mxPoint x="1066" y="410" as="sourcePoint"/>
                        <mxPoint x="1226" y="410" as="targetPoint"/>
                    </mxGeometry>
                </mxCell>
                <mxCell id="69" value="Extends" style="endArrow=block;endSize=16;endFill=0;html=1;dashed=1;entryX=1;entryY=0.5;entryDx=0;entryDy=0;exitX=0;exitY=0.5;exitDx=0;exitDy=0;" edge="1" parent="1" source="60" target="57">
                    <mxGeometry width="160" relative="1" as="geometry">
                        <mxPoint x="1066" y="410" as="sourcePoint"/>
                        <mxPoint x="1226" y="410" as="targetPoint"/>
                    </mxGeometry>
                </mxCell>
                <mxCell id="70" value="" style="endArrow=classic;html=1;dashed=1;entryX=0;entryY=0.5;entryDx=0;entryDy=0;exitX=1;exitY=0.5;exitDx=0;exitDy=0;" edge="1" parent="1" source="60" target="65">
                    <mxGeometry relative="1" as="geometry">
                        <mxPoint x="1192.27" y="21.49000000000001" as="sourcePoint"/>
                        <mxPoint x="1292.27" y="21.49000000000001" as="targetPoint"/>
                    </mxGeometry>
                </mxCell>
                <mxCell id="71" value="include" style="edgeLabel;resizable=0;html=1;align=center;verticalAlign=middle;" connectable="0" vertex="1" parent="70">
                    <mxGeometry relative="1" as="geometry"/>
                </mxCell>
                <mxCell id="72" value="" style="endArrow=classic;html=1;dashed=1;entryX=0.5;entryY=0;entryDx=0;entryDy=0;exitX=1;exitY=0.5;exitDx=0;exitDy=0;" edge="1" parent="1" source="60" target="66">
                    <mxGeometry relative="1" as="geometry">
                        <mxPoint x="1176" y="249.5" as="sourcePoint"/>
                        <mxPoint x="1276" y="249.5" as="targetPoint"/>
                    </mxGeometry>
                </mxCell>
                <mxCell id="73" value="include" style="edgeLabel;resizable=0;html=1;align=center;verticalAlign=middle;" connectable="0" vertex="1" parent="72">
                    <mxGeometry relative="1" as="geometry"/>
                </mxCell>
                <mxCell id="74" value="" style="endArrow=classic;html=1;dashed=1;entryX=0.1;entryY=0.88;entryDx=0;entryDy=0;entryPerimeter=0;exitX=1;exitY=0.5;exitDx=0;exitDy=0;" edge="1" parent="1" source="60" target="64">
                    <mxGeometry relative="1" as="geometry">
                        <mxPoint x="1186" y="259.5" as="sourcePoint"/>
                        <mxPoint x="1286" y="259.5" as="targetPoint"/>
                    </mxGeometry>
                </mxCell>
                <mxCell id="75" value="include" style="edgeLabel;resizable=0;html=1;align=center;verticalAlign=middle;" connectable="0" vertex="1" parent="74">
                    <mxGeometry relative="1" as="geometry">
                        <mxPoint x="-6" y="-82" as="offset"/>
                    </mxGeometry>
                </mxCell>
                <mxCell id="76" value="" style="endArrow=classic;html=1;dashed=1;entryX=0;entryY=1;entryDx=0;entryDy=0;exitX=1;exitY=0.5;exitDx=0;exitDy=0;" edge="1" parent="1" source="60" target="63">
                    <mxGeometry relative="1" as="geometry">
                        <mxPoint x="1196" y="269.5" as="sourcePoint"/>
                        <mxPoint x="1296" y="269.5" as="targetPoint"/>
                    </mxGeometry>
                </mxCell>
                <mxCell id="78" value="" style="endArrow=classic;html=1;dashed=1;entryX=0;entryY=0.5;entryDx=0;entryDy=0;exitX=1;exitY=0.5;exitDx=0;exitDy=0;" edge="1" parent="1" source="59" target="66">
                    <mxGeometry relative="1" as="geometry">
                        <mxPoint x="1206" y="279.5" as="sourcePoint"/>
                        <mxPoint x="1306" y="279.5" as="targetPoint"/>
                    </mxGeometry>
                </mxCell>
                <mxCell id="79" value="include" style="edgeLabel;resizable=0;html=1;align=center;verticalAlign=middle;" connectable="0" vertex="1" parent="78">
                    <mxGeometry relative="1" as="geometry"/>
                </mxCell>
                <mxCell id="80" value="" style="endArrow=classic;html=1;dashed=1;entryX=0;entryY=0.5;entryDx=0;entryDy=0;exitX=1;exitY=0.5;exitDx=0;exitDy=0;" edge="1" parent="1" source="59" target="65">
                    <mxGeometry relative="1" as="geometry">
                        <mxPoint x="1366" y="440" as="sourcePoint"/>
                        <mxPoint x="1316" y="289.5" as="targetPoint"/>
                    </mxGeometry>
                </mxCell>
                <mxCell id="81" value="include" style="edgeLabel;resizable=0;html=1;align=center;verticalAlign=middle;" connectable="0" vertex="1" parent="80">
                    <mxGeometry relative="1" as="geometry">
                        <mxPoint x="-60" y="-90" as="offset"/>
                    </mxGeometry>
                </mxCell>
                <mxCell id="82" value="" style="endArrow=classic;html=1;dashed=1;exitX=1;exitY=0.5;exitDx=0;exitDy=0;entryX=0;entryY=0.5;entryDx=0;entryDy=0;" edge="1" parent="1" source="59" target="64">
                    <mxGeometry relative="1" as="geometry">
                        <mxPoint x="1226" y="299.5" as="sourcePoint"/>
                        <mxPoint x="1466" y="420" as="targetPoint"/>
                    </mxGeometry>
                </mxCell>
                <mxCell id="84" value="" style="endArrow=classic;html=1;dashed=1;entryX=0;entryY=0.5;entryDx=0;entryDy=0;exitX=1;exitY=0.5;exitDx=0;exitDy=0;" edge="1" parent="1" source="59" target="63">
                    <mxGeometry relative="1" as="geometry">
                        <mxPoint x="1236" y="309.5" as="sourcePoint"/>
                        <mxPoint x="1346" y="300" as="targetPoint"/>
                    </mxGeometry>
                </mxCell>
                <mxCell id="85" value="include" style="edgeLabel;resizable=0;html=1;align=center;verticalAlign=middle;" connectable="0" vertex="1" parent="84">
                    <mxGeometry relative="1" as="geometry">
                        <mxPoint x="50" y="45" as="offset"/>
                    </mxGeometry>
                </mxCell>
                <mxCell id="98" value="" style="endArrow=classic;html=1;dashed=1;entryX=0.5;entryY=1;entryDx=0;entryDy=0;exitX=1;exitY=0.5;exitDx=0;exitDy=0;" edge="1" parent="1" source="61" target="63">
                    <mxGeometry relative="1" as="geometry">
                        <mxPoint x="1332.27" y="161.49" as="sourcePoint"/>
                        <mxPoint x="1432.27" y="161.49" as="targetPoint"/>
                    </mxGeometry>
                </mxCell>
                <mxCell id="99" value="include" style="edgeLabel;resizable=0;html=1;align=center;verticalAlign=middle;" connectable="0" vertex="1" parent="98">
                    <mxGeometry relative="1" as="geometry">
                        <mxPoint x="15" y="-3" as="offset"/>
                    </mxGeometry>
                </mxCell>
                <mxCell id="114" value="" style="endArrow=classic;html=1;dashed=1;entryX=0.075;entryY=0.86;entryDx=0;entryDy=0;entryPerimeter=0;exitX=1;exitY=0.5;exitDx=0;exitDy=0;" edge="1" parent="1" source="61" target="66">
                    <mxGeometry relative="1" as="geometry">
                        <mxPoint x="1226" y="258.4" as="sourcePoint"/>
                        <mxPoint x="1326" y="258.4" as="targetPoint"/>
                    </mxGeometry>
                </mxCell>
                <mxCell id="115" value="include" style="edgeLabel;resizable=0;html=1;align=center;verticalAlign=middle;" connectable="0" vertex="1" parent="114">
                    <mxGeometry relative="1" as="geometry"/>
                </mxCell>
                <mxCell id="116" value="" style="endArrow=classic;html=1;dashed=1;entryX=0;entryY=1;entryDx=0;entryDy=0;exitX=1;exitY=0.5;exitDx=0;exitDy=0;" edge="1" parent="1" source="61" target="65">
                    <mxGeometry relative="1" as="geometry">
                        <mxPoint x="1236" y="268.4" as="sourcePoint"/>
                        <mxPoint x="1336" y="268.4" as="targetPoint"/>
                    </mxGeometry>
                </mxCell>
                <mxCell id="117" value="include" style="edgeLabel;resizable=0;html=1;align=center;verticalAlign=middle;" connectable="0" vertex="1" parent="116">
                    <mxGeometry relative="1" as="geometry">
                        <mxPoint x="36" y="-14" as="offset"/>
                    </mxGeometry>
                </mxCell>
                <mxCell id="118" value="" style="endArrow=classic;html=1;dashed=1;entryX=0.5;entryY=1;entryDx=0;entryDy=0;exitX=1;exitY=0.5;exitDx=0;exitDy=0;" edge="1" parent="1" source="61" target="64">
                    <mxGeometry relative="1" as="geometry">
                        <mxPoint x="1246" y="278.4" as="sourcePoint"/>
                        <mxPoint x="1346" y="278.4" as="targetPoint"/>
                    </mxGeometry>
                </mxCell>
                <mxCell id="119" value="include" style="edgeLabel;resizable=0;html=1;align=center;verticalAlign=middle;" connectable="0" vertex="1" parent="118">
                    <mxGeometry relative="1" as="geometry"/>
                </mxCell>
                <mxCell id="126" value="івенти" style="ellipse;whiteSpace=wrap;html=1;" vertex="1" parent="1">
                    <mxGeometry x="1206" y="20" width="120" height="80" as="geometry"/>
                </mxCell>
                <mxCell id="127" value="статті" style="ellipse;whiteSpace=wrap;html=1;" vertex="1" parent="1">
                    <mxGeometry x="1206" y="140" width="120" height="80" as="geometry"/>
                </mxCell>
                <mxCell id="128" value="Extends" style="endArrow=block;endSize=16;endFill=0;html=1;entryX=1.008;entryY=0.363;entryDx=0;entryDy=0;entryPerimeter=0;exitX=0;exitY=0.5;exitDx=0;exitDy=0;dashed=1;dashPattern=8 8;" edge="1" parent="1" source="126" target="32">
                    <mxGeometry width="160" relative="1" as="geometry">
                        <mxPoint x="1066" y="390" as="sourcePoint"/>
                        <mxPoint x="1226" y="390" as="targetPoint"/>
                    </mxGeometry>
                </mxCell>
                <mxCell id="129" value="Extends" style="endArrow=block;endSize=16;endFill=0;html=1;entryX=1;entryY=0.5;entryDx=0;entryDy=0;exitX=0.025;exitY=0.325;exitDx=0;exitDy=0;exitPerimeter=0;dashed=1;" edge="1" parent="1" source="127" target="32">
                    <mxGeometry width="160" relative="1" as="geometry">
                        <mxPoint x="1066" y="390" as="sourcePoint"/>
                        <mxPoint x="1226" y="390" as="targetPoint"/>
                    </mxGeometry>
                </mxCell>
                <mxCell id="130" value="" style="endArrow=classic;html=1;dashed=1;entryX=-0.033;entryY=0.588;entryDx=0;entryDy=0;entryPerimeter=0;exitX=1;exitY=0.5;exitDx=0;exitDy=0;" edge="1" parent="1" source="127" target="41">
                    <mxGeometry relative="1" as="geometry">
                        <mxPoint x="1326" y="210" as="sourcePoint"/>
                        <mxPoint x="1366" y="255" as="targetPoint"/>
                    </mxGeometry>
                </mxCell>
                <mxCell id="131" value="include" style="edgeLabel;resizable=0;html=1;align=center;verticalAlign=middle;" connectable="0" vertex="1" parent="130">
                    <mxGeometry relative="1" as="geometry">
                        <mxPoint x="1" y="-3" as="offset"/>
                    </mxGeometry>
                </mxCell>
                <mxCell id="133" value="" style="endArrow=classic;html=1;dashed=1;exitX=1;exitY=0.5;exitDx=0;exitDy=0;" edge="1" parent="1" source="126" target="38">
                    <mxGeometry relative="1" as="geometry">
                        <mxPoint x="1318.4264068711927" y="151.28427124746167" as="sourcePoint"/>
                        <mxPoint x="1412.04" y="160.03999999999996" as="targetPoint"/>
                    </mxGeometry>
                </mxCell>
                <mxCell id="134" value="include" style="edgeLabel;resizable=0;html=1;align=center;verticalAlign=middle;" connectable="0" vertex="1" parent="133">
                    <mxGeometry relative="1" as="geometry">
                        <mxPoint x="1" y="-3" as="offset"/>
                    </mxGeometry>
                </mxCell>
                <mxCell id="135" value="форма реестрації на івент" style="ellipse;whiteSpace=wrap;html=1;" vertex="1" parent="1">
                    <mxGeometry x="1326" y="275" width="120" height="45" as="geometry"/>
                </mxCell>
                <mxCell id="136" value="" style="endArrow=classic;html=1;dashed=1;exitX=1;exitY=0.5;exitDx=0;exitDy=0;" edge="1" parent="1" source="59" target="135">
                    <mxGeometry relative="1" as="geometry">
                        <mxPoint x="1376" y="445" as="sourcePoint"/>
                        <mxPoint x="1476" y="325" as="targetPoint"/>
                    </mxGeometry>
                </mxCell>
                <mxCell id="137" value="include" style="edgeLabel;resizable=0;html=1;align=center;verticalAlign=middle;" connectable="0" vertex="1" parent="136">
                    <mxGeometry relative="1" as="geometry">
                        <mxPoint x="50" y="45" as="offset"/>
                    </mxGeometry>
                </mxCell>
                <mxCell id="138" value="" style="endArrow=classic;html=1;dashed=1;entryX=0.5;entryY=1;entryDx=0;entryDy=0;exitX=1;exitY=0.5;exitDx=0;exitDy=0;" edge="1" parent="1" source="60" target="135">
                    <mxGeometry relative="1" as="geometry">
                        <mxPoint x="1386" y="530" as="sourcePoint"/>
                        <mxPoint x="1493.5735931288073" y="342.6776695296637" as="targetPoint"/>
                    </mxGeometry>
                </mxCell>
                <mxCell id="139" value="" style="endArrow=classic;html=1;dashed=1;entryX=0.5;entryY=1;entryDx=0;entryDy=0;exitX=1;exitY=0.5;exitDx=0;exitDy=0;" edge="1" parent="1" source="61" target="135">
                    <mxGeometry relative="1" as="geometry">
                        <mxPoint x="1386" y="615" as="sourcePoint"/>
                        <mxPoint x="1536" y="350" as="targetPoint"/>
                    </mxGeometry>
                </mxCell>
                <mxCell id="140" value="include" style="edgeLabel;resizable=0;html=1;align=center;verticalAlign=middle;" connectable="0" vertex="1" parent="139">
                    <mxGeometry relative="1" as="geometry">
                        <mxPoint x="15" y="-3" as="offset"/>
                    </mxGeometry>
                </mxCell>
            </root>
        </mxGraphModel>
    </diagram>
</mxfile>